#!OML:ASF H:\Dans Jumps\Project 1\Capture day 1\Session 1\subject.ASF
:FULLY-SPECIFIED
:DEGREES
205
root 0.235922 14.7367 -12.7995 40.805 1.74968 -3.26281
lowerback 33.9365 1.87004 -0.633426
upperback 1.84896 2.52054 2.32091
thorax -15.5858 1.19601 1.79792
lowerneck -19.9492 -0.488811 -0.312842
upperneck -10.4408 -0.624166 -1.18167
head -0.0754241 -0.323937 -0.356556
rclavicle 9.93923e-015 1.39149e-015
rhumerus -15.8866 -12.3353 -72.2952
rradius 30.2479
rwrist 24.4196
rhand -21.7879 -22.6762
rfingers 7.12502
rthumb 4.61359 -52.606
lclavicle 9.93923e-015 1.39149e-015
lhumerus -21.6692 8.74771 71.4263
lradius 17.4282
lwrist 11.5594
lhand -27.4452 -10.8908
lfingers 7.12502
lthumb -0.850058 19.0872
rfemur -74.3387 0.93182 23.4606
rtibia 74.5666
rfoot -35.6783 -22.3242
rtoes -10.7005
lfemur -75.5351 6.08852 -18.926
ltibia 75.4147
lfoot -28.5077 26.9921
ltoes -25.6477
206
root 0.225241 14.8465 -12.5868 40.2259 1.99801 -3.2456
lowerback 32.8672 1.78032 -0.674043
upperback 1.61892 2.42587 2.45911
thorax -15.4114 1.17208 2.02904
lowerneck -20.2326 -0.440912 -0.26334
upperneck -8.82443 -0.547998 -1.1286
head 0.510308 -0.295075 -0.349513
rclavicle -1.74931e-014 -1.82882e-014
rhumerus -13.9604 -9.93669 -72.5634
rradius 32.2808
rwrist 23.5779
rhand -21.811 -22.7891
rfingers 7.12502
rthumb 4.59131 -52.7194
lclavicle -1.74931e-014 -1.82882e-014
lhumerus -19.8611 5.98535 72.0586
lradius 19.3174
lwrist 15.9147
lhand -26.6983 -10.41
lfingers 7.12502
lthumb -0.128689 19.5697
rfemur -71.8474 0.856438 23.451
rtibia 73.0542
rfoot -35.6177 -22.6701
rtoes -12.8352
lfemur -73.22 6.07224 -18.5242
ltibia 74.098
lfoot -28.3539 26.8601
ltoes -27.0941
207
root 0.212175 14.9625 -12.3629 39.4868 2.24424 -3.23458
lowerback 31.9007 1.6891 -0.7584
upperback 1.40579 2.31467 2.61553
thorax -15.2515 1.14349 2.30798
lowerneck -20.443 -0.393252 -0.23102
upperneck -7.16444 -0.47153 -1.08157
head 1.10859 -0.264484 -0.341183
rclavicle -5.76476e-015 -2.18663e-015
rhumerus -12.2326 -7.69095 -72.6633
rradius 34.2924
rwrist 22.8043
rhand -21.8 -22.9226
rfingers 7.12502
rthumb 4.60188 -52.8527
lclavicle -5.76476e-015 -2.18663e-015
lhumerus -18.2582 3.24016 72.4385
lradius 20.9356
lwrist 18.7906
lhand -26.0117 -9.6784
lfingers 7.12502
lthumb 0.534475 20.3007
rfemur -69.0951 0.819299 23.4351
rtibia 71.4349
rfoot -35.5159 -22.937
rtoes -14.7405
lfemur -70.7103 6.11008 -18.1653
ltibia 72.7557
lfoot -28.0926 26.6396
ltoes -28.2523
208
root 0.198526 15.0836 -12.1268 38.5882 2.48298 -3.23002
lowerback 31.0038 1.58789 -0.852033
upperback 1.23079 2.18538 2.77142
thorax -15.0664 1.10622 2.59639
lowerneck -20.5616 -0.353057 -0.2167
upperneck -5.49853 -0.403857 -1.03663
head 1.7029 -0.23683 -0.330249
rclavicle 4.96962e-015 2.52457e-014
rhumerus -10.665 -5.72408 -72.6663
rradius 36.2203
rwrist 22.0187
rhand -21.7898 -23.0533
rfingers 7.12502
rthumb 4.61178 -52.9831
lclavicle 4.96962e-015 2.52457e-014
lhumerus -16.8626 0.498095 72.6155
lradius 22.292
lwrist 20.1378
lhand -25.6281 -8.95924
lfingers 7.12502
lthumb 0.904928 21.0186
rfemur -66.1063 0.795855 23.4352
rtibia 69.7365
rfoot -35.339 -23.104
rtoes -16.3774
lfemur -68.019 6.20694 -17.8674
ltibia 71.4141
lfoot -27.6981 26.3399
ltoes -29.197
